<mxfile host="app.diagrams.net" modified="2022-11-29T09:40:31.479Z" agent="5.0 (Windows NT 10.0; Win64; x64) AppleWebKit/537.36 (KHTML, like Gecko) Chrome/107.0.0.0 Safari/537.36" version="20.6.0" etag="3rUuU8tcV_f2fOUA8XfD" type="github">
  <diagram id="DtH2Y51N2P6LpI5TNhch" name="Страница 1">
    <mxGraphModel dx="2060" dy="801" grid="1" gridSize="10" guides="1" tooltips="1" connect="1" arrows="1" fold="1" page="1" pageScale="1" pageWidth="827" pageHeight="1169" math="0" shadow="0">
      <root>
        <mxCell id="0" />
        <mxCell id="1" parent="0" />
        <mxCell id="Z5EfccPca7Q9Xv_PAJAf-9" style="rounded=0;orthogonalLoop=1;jettySize=auto;html=1;" edge="1" parent="1" source="Z5EfccPca7Q9Xv_PAJAf-1" target="Z5EfccPca7Q9Xv_PAJAf-2">
          <mxGeometry relative="1" as="geometry" />
        </mxCell>
        <mxCell id="Z5EfccPca7Q9Xv_PAJAf-20" style="edgeStyle=none;rounded=0;orthogonalLoop=1;jettySize=auto;html=1;fillColor=#f8cecc;strokeColor=#b85450;" edge="1" parent="1" source="Z5EfccPca7Q9Xv_PAJAf-1" target="Z5EfccPca7Q9Xv_PAJAf-7">
          <mxGeometry relative="1" as="geometry" />
        </mxCell>
        <mxCell id="Z5EfccPca7Q9Xv_PAJAf-1" value="Проект" style="rounded=0;whiteSpace=wrap;html=1;" vertex="1" parent="1">
          <mxGeometry x="220" y="160" width="120" height="60" as="geometry" />
        </mxCell>
        <mxCell id="Z5EfccPca7Q9Xv_PAJAf-10" style="edgeStyle=none;rounded=0;orthogonalLoop=1;jettySize=auto;html=1;" edge="1" parent="1" source="Z5EfccPca7Q9Xv_PAJAf-2" target="Z5EfccPca7Q9Xv_PAJAf-3">
          <mxGeometry relative="1" as="geometry" />
        </mxCell>
        <mxCell id="Z5EfccPca7Q9Xv_PAJAf-19" style="edgeStyle=none;rounded=0;orthogonalLoop=1;jettySize=auto;html=1;fillColor=#f8cecc;strokeColor=#b85450;" edge="1" parent="1" source="Z5EfccPca7Q9Xv_PAJAf-2" target="Z5EfccPca7Q9Xv_PAJAf-7">
          <mxGeometry relative="1" as="geometry" />
        </mxCell>
        <mxCell id="Z5EfccPca7Q9Xv_PAJAf-2" value="Оформлено" style="rounded=0;whiteSpace=wrap;html=1;" vertex="1" parent="1">
          <mxGeometry x="300" y="270" width="120" height="60" as="geometry" />
        </mxCell>
        <mxCell id="Z5EfccPca7Q9Xv_PAJAf-11" style="edgeStyle=none;rounded=0;orthogonalLoop=1;jettySize=auto;html=1;" edge="1" parent="1" source="Z5EfccPca7Q9Xv_PAJAf-3" target="Z5EfccPca7Q9Xv_PAJAf-8">
          <mxGeometry relative="1" as="geometry" />
        </mxCell>
        <mxCell id="Z5EfccPca7Q9Xv_PAJAf-18" style="edgeStyle=none;rounded=0;orthogonalLoop=1;jettySize=auto;html=1;fillColor=#f8cecc;strokeColor=#b85450;" edge="1" parent="1" source="Z5EfccPca7Q9Xv_PAJAf-3" target="Z5EfccPca7Q9Xv_PAJAf-7">
          <mxGeometry relative="1" as="geometry" />
        </mxCell>
        <mxCell id="Z5EfccPca7Q9Xv_PAJAf-3" value="Передан заявителю" style="rounded=0;whiteSpace=wrap;html=1;" vertex="1" parent="1">
          <mxGeometry x="380" y="380" width="120" height="60" as="geometry" />
        </mxCell>
        <mxCell id="Z5EfccPca7Q9Xv_PAJAf-15" style="edgeStyle=none;rounded=0;orthogonalLoop=1;jettySize=auto;html=1;fillColor=#f8cecc;strokeColor=#b85450;" edge="1" parent="1" source="Z5EfccPca7Q9Xv_PAJAf-4" target="Z5EfccPca7Q9Xv_PAJAf-7">
          <mxGeometry relative="1" as="geometry" />
        </mxCell>
        <mxCell id="Z5EfccPca7Q9Xv_PAJAf-4" value="Ответ зарегистрирован" style="rounded=0;whiteSpace=wrap;html=1;" vertex="1" parent="1">
          <mxGeometry y="790" width="120" height="60" as="geometry" />
        </mxCell>
        <mxCell id="Z5EfccPca7Q9Xv_PAJAf-14" style="edgeStyle=none;rounded=0;orthogonalLoop=1;jettySize=auto;html=1;" edge="1" parent="1" source="Z5EfccPca7Q9Xv_PAJAf-5" target="Z5EfccPca7Q9Xv_PAJAf-4">
          <mxGeometry relative="1" as="geometry" />
        </mxCell>
        <mxCell id="Z5EfccPca7Q9Xv_PAJAf-16" style="edgeStyle=none;rounded=0;orthogonalLoop=1;jettySize=auto;html=1;fillColor=#f8cecc;strokeColor=#b85450;" edge="1" parent="1" source="Z5EfccPca7Q9Xv_PAJAf-6" target="Z5EfccPca7Q9Xv_PAJAf-7">
          <mxGeometry relative="1" as="geometry" />
        </mxCell>
        <mxCell id="Z5EfccPca7Q9Xv_PAJAf-5" value="Ответ получен" style="rounded=0;whiteSpace=wrap;html=1;" vertex="1" parent="1">
          <mxGeometry x="210" y="710" width="120" height="60" as="geometry" />
        </mxCell>
        <mxCell id="Z5EfccPca7Q9Xv_PAJAf-6" value="Ответ не получен" style="rounded=0;whiteSpace=wrap;html=1;" vertex="1" parent="1">
          <mxGeometry x="390" y="650" width="120" height="60" as="geometry" />
        </mxCell>
        <mxCell id="Z5EfccPca7Q9Xv_PAJAf-7" value="Аннулирован" style="rounded=0;whiteSpace=wrap;html=1;fillColor=#f8cecc;strokeColor=#b85450;" vertex="1" parent="1">
          <mxGeometry x="-10" y="400" width="120" height="60" as="geometry" />
        </mxCell>
        <mxCell id="Z5EfccPca7Q9Xv_PAJAf-12" style="edgeStyle=none;rounded=0;orthogonalLoop=1;jettySize=auto;html=1;" edge="1" parent="1" source="Z5EfccPca7Q9Xv_PAJAf-8" target="Z5EfccPca7Q9Xv_PAJAf-6">
          <mxGeometry relative="1" as="geometry" />
        </mxCell>
        <mxCell id="Z5EfccPca7Q9Xv_PAJAf-13" style="edgeStyle=none;rounded=0;orthogonalLoop=1;jettySize=auto;html=1;" edge="1" parent="1" source="Z5EfccPca7Q9Xv_PAJAf-8" target="Z5EfccPca7Q9Xv_PAJAf-5">
          <mxGeometry relative="1" as="geometry" />
        </mxCell>
        <mxCell id="Z5EfccPca7Q9Xv_PAJAf-17" style="edgeStyle=none;rounded=0;orthogonalLoop=1;jettySize=auto;html=1;fillColor=#f8cecc;strokeColor=#b85450;" edge="1" parent="1" source="Z5EfccPca7Q9Xv_PAJAf-8" target="Z5EfccPca7Q9Xv_PAJAf-7">
          <mxGeometry relative="1" as="geometry" />
        </mxCell>
        <mxCell id="Z5EfccPca7Q9Xv_PAJAf-8" value="Обработан заявителем" style="rounded=0;whiteSpace=wrap;html=1;" vertex="1" parent="1">
          <mxGeometry x="410" y="510" width="120" height="60" as="geometry" />
        </mxCell>
      </root>
    </mxGraphModel>
  </diagram>
</mxfile>
